# xmcd CD database file
#
# Track frame offsets:
#	150
#	13694
#	27048
#	42562
#	73506
#	85667
#	103148
#	113102
#	125866
#	138879
#	152608
#	167770
#	180114
#	191141
#	204868
#	223110
#	237456
#	250246
#	263060
#	275114
#
# Disc length: 3848 seconds
#
# Revision: 0
# Processed by: cddbd v1.5.2PL0 Copyright (c) Steve Scherf et al.
# Submitted via: CDex 1.70beta2
#
DISCID=1d0f0614
DTITLE=Dinah Washington - Mad About The Boy - cd1
DYEAR=2006
DGENRE=Jazz
TTITLE0=Mad About The Boy
TTITLE1=Mixed Emotions
TTITLE2=Smoke Gets In Your Eyes
TTITLE3=This Can't Be Love
TTITLE4=Dream
TTITLE5=More Than You Know
TTITLE6=Love For Sale
TTITLE7=I Wanna Be Loved
TTITLE8=Just One More Chance
TTITLE9=Stormy Weather
TTITLE10=Cold, Cold Heart
TTITLE11=I'll Never Be Free
TTITLE12=If I Loved You
TTITLE13=Harbour Lights
TTITLE14=You Don't Know What Love Is
TTITLE15=I Don't Hurt Anymore
TTITLE16=Trouble In Mind
TTITLE17=Baby Get Lost
TTITLE18=Since I Fell For You
TTITLE19=Please Send Me Someone To Love
EXTD=YEAR: 2006
EXTT0=
EXTT1=
EXTT2=
EXTT3=
EXTT4=
EXTT5=
EXTT6=
EXTT7=
EXTT8=
EXTT9=
EXTT10=
EXTT11=
EXTT12=
EXTT13=
EXTT14=
EXTT15=
EXTT16=
EXTT17=
EXTT18=
EXTT19=
PLAYORDER=
